<svg width="36" height="36" viewBox="0 0 36 36" fill="none" xmlns="http://www.w3.org/2000/svg">
<path d="M14.4053 12.3242C14.4053 11.063 15.162 7.99998 18.189 7.99998C21.2159 7.99998 21.9727 10.5224 21.9727 12.3242M14.4053 16.1079C14.4053 17.7295 16.2428 19.3511 18.189 19.3511C20.1351 19.3511 21.9727 17.7295 21.9727 16.1079M17.6484 27.9995C19.151 28.0104 20.9931 27.8253 22.6324 27.6053C25.0663 27.2786 26.7706 25.1134 26.6797 22.6593L26.3682 14.2502C26.3284 13.1752 25.4454 12.3242 24.3696 12.3242H11.9384C10.8911 12.3242 10.0212 13.1321 9.94385 14.1765L9.32591 22.5187C9.1397 25.0325 10.8535 27.3024 13.3518 27.638C14.7902 27.8312 16.3527 27.9901 17.6484 27.9995Z" stroke="black" stroke-width="1.75" stroke-linecap="round"/>
</svg>
