<svg width="36" height="36" viewBox="0 0 36 36" fill="none" xmlns="http://www.w3.org/2000/svg">
<path d="M17.9998 9.00572C19.1698 8.96815 20.3355 9.16615 21.4275 9.58797C22.5194 10.0098 23.5155 10.6468 24.3564 11.4612C25.1974 12.2755 25.866 13.2506 26.3227 14.3285C26.7793 15.4064 27.0146 16.5651 27.0146 17.7357C27.0146 18.9063 26.7793 20.065 26.3227 21.1429C25.866 22.2208 25.1974 23.1959 24.3564 24.0103C23.5155 24.8246 22.5194 25.4617 21.4275 25.8835C20.3355 26.3053 19.1698 26.5033 17.9998 26.4657C17.1197 26.4682 16.2433 26.3519 15.3943 26.1201C15.235 26.0766 15.0656 26.0893 14.9146 26.1561L13.129 26.9445C13.021 26.992 12.9031 27.0122 12.7854 27.0035C12.6678 26.9948 12.5542 26.9573 12.4544 26.8944C12.3546 26.8315 12.2718 26.7451 12.2132 26.6427C12.1546 26.5404 12.122 26.4252 12.1183 26.3073L12.0697 24.7053C12.0656 24.608 12.042 24.5125 12.0003 24.4246C11.9585 24.3366 11.8995 24.2579 11.8267 24.1932C10.9233 23.3799 10.2038 22.3832 9.71648 21.2696C9.22913 20.156 8.9851 18.9512 9.0007 17.7357C8.99386 16.5644 9.22403 15.4038 9.67735 14.3238C10.1307 13.2437 10.7978 12.2665 11.6386 11.451C12.4793 10.6354 13.4764 9.99838 14.5697 9.57816C15.6631 9.15793 16.8301 8.96322 18.0007 9.00572H17.9998Z" stroke="black" stroke-width="1.75" stroke-miterlimit="10"/>
<path fill-rule="evenodd" clip-rule="evenodd" d="M23.2081 16.3236C23.2833 16.2056 23.3143 16.0648 23.2957 15.9261C23.2771 15.7874 23.2101 15.6598 23.1065 15.5657C23.0028 15.4717 22.8693 15.4173 22.7295 15.4122C22.5896 15.4071 22.4525 15.4517 22.3423 15.5379L20.0419 17.3829C19.9438 17.4572 19.8242 17.4976 19.7011 17.4979C19.578 17.4982 19.4582 17.4585 19.3597 17.3847L17.1511 15.7278C16.9944 15.6105 16.8151 15.5269 16.6246 15.4822C16.434 15.4376 16.2362 15.4329 16.0437 15.4684C15.8512 15.5039 15.6682 15.5788 15.5061 15.6885C15.344 15.7982 15.2063 15.9403 15.1018 16.1058L12.7915 19.6878C12.7156 19.8057 12.684 19.9467 12.7022 20.0857C12.7204 20.2248 12.7873 20.3528 12.891 20.4472C12.9947 20.5416 13.1284 20.5962 13.2686 20.6014C13.4087 20.6065 13.5461 20.5619 13.6564 20.4753L15.9568 18.6312C16.055 18.5567 16.1748 18.5162 16.298 18.5159C16.4213 18.5156 16.5413 18.5554 16.6399 18.6294L18.8467 20.2854C19.0034 20.4029 19.1828 20.4866 19.3734 20.5313C19.5641 20.5761 19.762 20.5808 19.9546 20.5453C20.1472 20.5098 20.3303 20.4348 20.4925 20.325C20.6547 20.2152 20.7924 20.073 20.8969 19.9074L23.2081 16.3236Z" fill="black"/>
</svg>
