<svg width="36" height="36" viewBox="0 0 36 36" fill="none" xmlns="http://www.w3.org/2000/svg">
<path d="M20.7362 19.7838L16.3429 16.9437C16.0547 16.7435 15.6568 16.8135 15.4537 17.1016C15.3768 17.2122 15.3391 17.3392 15.3391 17.4645H15.3358V22.9154C15.3358 23.2669 15.6224 23.5517 15.9761 23.5517C16.1316 23.5517 16.2724 23.498 16.3822 23.4085L20.7575 20.8418C21.0473 20.6432 21.121 20.2477 20.9212 19.9596C20.8704 19.888 20.8066 19.8294 20.7362 19.7838Z" fill="black"/>
<rect x="8.875" y="8.875" width="18.25" height="18.25" rx="5.125" stroke="black" stroke-width="1.75"/>
<line x1="9" y1="14.125" x2="27" y2="14.125" stroke="black" stroke-width="1.75"/>
<path d="M13.5 9L16.5 14" stroke="black" stroke-width="1.75"/>
<path d="M20 9L23 14" stroke="black" stroke-width="1.75"/>
</svg>
