<svg width="36" height="36" viewBox="0 0 36 36" fill="none" xmlns="http://www.w3.org/2000/svg">
<path fill-rule="evenodd" clip-rule="evenodd" d="M15.3 18.45C15.3 19.1956 14.6956 19.8 13.95 19.8C13.2044 19.8 12.6 19.1956 12.6 18.45C12.6 17.7044 13.2044 17.1 13.95 17.1C14.6956 17.1 15.3 17.7044 15.3 18.45ZM18.45 19.8C19.1956 19.8 19.8 19.1956 19.8 18.45C19.8 17.7044 19.1956 17.1 18.45 17.1C17.7044 17.1 17.1 17.7044 17.1 18.45C17.1 19.1956 17.7044 19.8 18.45 19.8ZM22.95 19.8C23.6956 19.8 24.3 19.1956 24.3 18.45C24.3 17.7044 23.6956 17.1 22.95 17.1C22.2044 17.1 21.6 17.7044 21.6 18.45C21.6 19.1956 22.2044 19.8 22.95 19.8Z" fill="black"/>
</svg>
