<svg width="36" height="36" viewBox="0 0 36 36" fill="none" xmlns="http://www.w3.org/2000/svg">
<path d="M8.4273 16.4861L7.83871 15.8387L7.83871 15.8387L8.4273 16.4861ZM15.6428 27.5837V28.4587H16.5178V27.5837H15.6428ZM20.3571 27.5837H19.4821V28.4587H20.3571V27.5837ZM27.5726 16.4861L26.9841 17.1336L27.5726 16.4861ZM18.6726 8.39521L18.0841 9.04265V9.04265L18.6726 8.39521ZM17.3273 8.39521L17.9159 9.04265V9.04265L17.3273 8.39521ZM8.97498 17.2261C8.97498 17.1908 8.98983 17.1573 9.01589 17.1336L7.83871 15.8387C7.44782 16.194 7.22498 16.6978 7.22498 17.2261H8.97498ZM8.97498 26.5837V17.2261H7.22498V26.5837H8.97498ZM9.09998 26.7087C9.03094 26.7087 8.97498 26.6527 8.97498 26.5837H7.22498C7.22498 27.6192 8.06444 28.4587 9.09998 28.4587V26.7087ZM15.6428 26.7087H9.09998V28.4587H15.6428V26.7087ZM16.5178 27.5837V21.8408H14.7678V27.5837H16.5178ZM16.5178 21.8408C16.5178 21.0223 17.1814 20.3587 18 20.3587V18.6087C16.2149 18.6087 14.7678 20.0558 14.7678 21.8408H16.5178ZM18 20.3587C18.8185 20.3587 19.4821 21.0223 19.4821 21.8408H21.2321C21.2321 20.0558 19.785 18.6087 18 18.6087V20.3587ZM19.4821 21.8408V27.5837H21.2321V21.8408H19.4821ZM26.9 26.7087H20.3571V28.4587H26.9V26.7087ZM27.025 26.5837C27.025 26.6527 26.969 26.7087 26.9 26.7087V28.4587C27.9355 28.4587 28.775 27.6192 28.775 26.5837H27.025ZM27.025 17.2261V26.5837H28.775V17.2261H27.025ZM26.9841 17.1336C27.0101 17.1573 27.025 17.1908 27.025 17.2261H28.775C28.775 16.6978 28.5521 16.194 28.1612 15.8387L26.9841 17.1336ZM18.0841 9.04265L26.9841 17.1336L28.1612 15.8387L19.2612 7.74776L18.0841 9.04265ZM17.9159 9.04265C17.9636 8.99931 18.0364 8.99931 18.0841 9.04265L19.2612 7.74776C18.5461 7.09761 17.4539 7.09761 16.7387 7.74776L17.9159 9.04265ZM9.01589 17.1336L17.9159 9.04265L16.7387 7.74776L7.83871 15.8387L9.01589 17.1336Z" fill="black"/>
</svg>
