<svg width="36" height="36" viewBox="0 0 36 36" fill="none" xmlns="http://www.w3.org/2000/svg">
<path d="M18.3104 20.6543L17.745 20.1554L17.1681 20.6409L11.5558 25.3632C11.2469 25.6232 10.775 25.4035 10.775 24.9997V9.9C10.775 9.89493 10.7759 9.89231 10.7766 9.89054C10.7776 9.88818 10.7794 9.88522 10.7823 9.88232C10.7852 9.87942 10.7882 9.8776 10.7906 9.87661C10.7923 9.87585 10.795 9.875 10.8 9.875H24.3C24.3051 9.875 24.3077 9.87585 24.3095 9.87661C24.3118 9.8776 24.3148 9.87942 24.3177 9.88232C24.3206 9.88522 24.3224 9.88818 24.3234 9.89054C24.3242 9.89231 24.325 9.89493 24.325 9.9V24.9085C24.325 25.3175 23.8425 25.5353 23.5358 25.2647L18.3104 20.6543Z" stroke="black" stroke-width="1.75"/>
</svg>
